<?xml version="1.0" encoding="utf-8"?>
<!-- Generator: Adobe Illustrator 24.3.0, SVG Export Plug-In . SVG Version: 6.00 Build 0)  -->
<svg version="1.1" id="レイヤー_1" xmlns="http://www.w3.org/2000/svg" xmlns:xlink="http://www.w3.org/1999/xlink" x="0px"
	 y="0px" width="300px" height="300px" viewBox="0 0 300 300" style="enable-background:new 0 0 300 300;" xml:space="preserve">
<style type="text/css">
	.st0{fill:none;stroke:#333333;stroke-width:6;stroke-linecap:round;stroke-linejoin:round;stroke-miterlimit:10;}
	.st1{fill:#333333;}
	.st2{fill:none;stroke:#333333;stroke-width:8;stroke-linecap:round;stroke-linejoin:round;stroke-miterlimit:10;}
</style>
<g>
	<polyline class="st0" points="194.63,115.83 203.39,125.24 229.46,108.38 	"/>
	<g>
		<path class="st1" d="M212.04,82.96c18.67,0,33.85,15.19,33.85,33.85s-15.19,33.85-33.85,33.85s-33.85-15.19-33.85-33.85
			S193.38,82.96,212.04,82.96 M212.04,76.96c-22.01,0-39.85,17.84-39.85,39.85s17.84,39.85,39.85,39.85s39.85-17.84,39.85-39.85
			S234.05,76.96,212.04,76.96L212.04,76.96z"/>
	</g>
	<polyline class="st2" points="212.4,166.83 212.4,223.04 48.1,223.04 48.1,115.47 162.05,115.47 	"/>
	<polyline class="st2" points="171.84,147.87 130.33,175.32 48.26,116.64 	"/>
</g>
</svg>
